<?xml version="1.0" encoding="UTF-8" standalone="no"?>
<svg
   xmlns:dc="http://purl.org/dc/elements/1.1/"
   xmlns:cc="http://creativecommons.org/ns#"
   xmlns:rdf="http://www.w3.org/1999/02/22-rdf-syntax-ns#"
   xmlns:svg="http://www.w3.org/2000/svg"
   xmlns="http://www.w3.org/2000/svg"
   xmlns:sodipodi="http://sodipodi.sourceforge.net/DTD/sodipodi-0.dtd"
   xmlns:inkscape="http://www.inkscape.org/namespaces/inkscape"
   id="logo"
   viewBox="0 0 2136 645.55341"
   version="1.1"
   sodipodi:docname="moodify.svg"
   width="2136"
   height="645.55341"
   inkscape:version="0.92.5 (0.92.5+68)">
  <metadata
     id="metadata48">
    <rdf:RDF>
      <cc:Work
         rdf:about="">
        <dc:format>image/svg+xml</dc:format>
        <dc:type
           rdf:resource="http://purl.org/dc/dcmitype/StillImage" />
        <dc:title>moodify</dc:title>
      </cc:Work>
    </rdf:RDF>
  </metadata>
  <sodipodi:namedview
     pagecolor="#ffffff"
     bordercolor="#666666"
     borderopacity="1"
     objecttolerance="10"
     gridtolerance="10"
     guidetolerance="10"
     inkscape:pageopacity="0"
     inkscape:pageshadow="2"
     inkscape:window-width="640"
     inkscape:window-height="480"
     id="namedview46"
     showgrid="false"
     inkscape:pagecheckerboard="true"
     inkscape:zoom="0.15703232"
     inkscape:cx="1069.5"
     inkscape:cy="331.05342"
     inkscape:window-x="0"
     inkscape:window-y="0"
     inkscape:window-maximized="0"
     inkscape:current-layer="logo" />
  <defs
     id="defs4">
    <style
       id="style2">
      .cls-1 {
        fill: #fff;
      }

      .cls-2, .cls-3 {
        fill: none;
        stroke: #fff;
        stroke-miterlimit: 10;
      }

      .cls-2 {
        stroke-width: 58px;
      }

      .cls-3 {
        stroke-width: 6px;
      }
    </style>
  </defs>
  <title
     id="title6">moodify</title>
  <g
     id="g16"
     transform="translate(-29,-16.499992)">
    <path
       class="cls-1"
       d="m 1477,39 v 371 h -74.5 v -31 q -29,35 -84,35 -38,0 -68.75,-17 a 121.67,121.67 0 0 1 -48.25,-48.5 q -17.5,-31.5 -17.5,-73 0,-41.5 17.5,-73 a 121.72,121.72 0 0 1 48.25,-48.5 q 30.75,-17 68.75,-17 51.49,0 80.5,32.5 V 39 Z m -96,290.75 q 19.5,-20.25 19.5,-54.25 0,-34 -19.5,-54.25 -19.5,-20.25 -49,-20.25 -30,0 -49.5,20.25 -19.5,20.25 -19.5,54.25 0,34 19.5,54.25 19.5,20.25 49.5,20.25 29.5,0 49,-20.25 z"
       id="path8"
       inkscape:connector-curvature="0"
       style="fill:#ffffff" />
    <path
       class="cls-1"
       d="M 1553,91 A 40.53,40.53 0 0 1 1539.5,60 40.55,40.55 0 0 1 1553,29 q 13.5,-12.49 35,-12.5 21.5,-0.01 35,12 a 38.48,38.48 0 0 1 13.5,30 q 0,19.5 -13.5,32.25 -13.5,12.75 -35,12.75 -21.51,0 -35,-12.5 z m -4,50 h 78 v 269 h -78 z"
       id="path10"
       inkscape:connector-curvature="0"
       style="fill:#ffffff" />
    <path
       class="cls-1"
       d="m 1785,147 h 69 v 60 h -67 v 203 h -78 V 207 h -41.5 v -60 h 41.5 v -12 q 0,-46 27.25,-73 27.25,-27 76.75,-27 a 143.17,143.17 0 0 1 33.25,3.75 Q 1862,42.5 1872.49,49.5 L 1852,106 q -13.5,-9.49 -31.5,-9.5 -35.51,0 -35.5,39 z"
       id="path12"
       inkscape:connector-curvature="0"
       style="fill:#ffffff" />
    <path
       class="cls-1"
       d="M 2165,141 2043.5,426.5 Q 2025,473 1997.73,492 1970.46,511 1932,511 a 136.71,136.71 0 0 1 -41.5,-6.5 q -20.51,-6.5 -33.5,-18 l 28.5,-55.5 a 67,67 0 0 0 20.75,12.5 64.63,64.63 0 0 0 23.25,4.5 q 16,0 26,-7.75 10,-7.75 18,-25.75 l 1,-2.5 L 1858,141 h 80.5 L 2014,323.5 2090,141 Z"
       id="path14"
       inkscape:connector-curvature="0"
       style="fill:#ffffff" />
  </g>
  <g
     id="g22"
     transform="translate(-29,-16.499992)">
    <path
       class="cls-1"
       d="m 569.24,396.07 q -33.75,-17.74 -52.75,-49.25 -19,-31.51 -19,-71.5 0,-40 19,-71.5 19,-31.5 52.75,-49.25 33.75,-17.74 76.25,-17.75 42.5,-0.01 76,17.75 33.51,17.76 52.51,49.25 19,31.49 19,71.5 0,40 -19,71.5 -19,31.5 -52.5,49.25 -33.5,17.75 -76,17.75 -42.5,0 -76.26,-17.75 z m 125.5,-66.5 Q 714,309.32 714,275.32 q 0,-34 -19.25,-54.25 -19.25,-20.25 -49.25,-20.25 -30,0 -49.5,20.25 -19.5,20.25 -19.5,54.25 0,34 19.5,54.25 19.5,20.25 49.5,20.25 30,0 49.24,-20.25 z"
       id="path18"
       inkscape:connector-curvature="0"
       style="fill:#ffffff" />
    <path
       class="cls-1"
       d="M 896.74,396.07 Q 863,378.33 844,346.82 q -19,-31.51 -19,-71.5 0,-40 19,-71.5 19,-31.5 52.75,-49.25 33.75,-17.74 76.25,-17.75 42.5,-0.01 76,17.75 33.49,17.75 52.5,49.25 19.01,31.5 19,71.5 0,40 -19,71.5 -19,31.5 -52.5,49.25 -33.5,17.75 -76,17.75 -42.5,0 -76.26,-17.75 z m 125.5,-66.5 q 19.24,-20.25 19.25,-54.25 0.01,-34 -19.25,-54.25 Q 1003,200.82 973,200.82 q -30,0 -49.5,20.25 -19.5,20.25 -19.5,54.25 0,34 19.5,54.25 19.5,20.25 49.5,20.25 30,0 49.24,-20.25 z"
       id="path20"
       inkscape:connector-curvature="0"
       style="fill:#ffffff" />
  </g>
  <path
     class="cls-1"
     d="m 318.52,393.32001 -0.5,-210 -103,173 h -36.5 L 76,187.82001 v 205.5 H 0 V 43.320008 H 67 L 198,260.82001 327,43.320008 h 66.5 l 1,350.000002 z"
     id="path24"
     inkscape:connector-curvature="0"
     style="fill:#ffffff" />
  <path
     id="smile"
     class="cls-2"
     d="m 596,488.50001 c 0,0 81,54 180,54 99,0 180,-54 180,-54"
     inkscape:connector-curvature="0"
     style="fill:none;stroke:#ffffff;stroke-width:58px;stroke-miterlimit:10" />
  <g
     id="r_earbud"
     data-name="r earbud"
     transform="translate(-29,-16.499992)">
    <path
       class="cls-3"
       d="m 1164.56,355.42 c 0,77.28 -40.95,228.53 -39.56,306.58"
       id="path27"
       inkscape:connector-curvature="0"
       style="fill:none;stroke:#ffffff;stroke-width:6px;stroke-miterlimit:10" />
    <g
       id="g33">
      <rect
         class="cls-1"
         x="1159.0699"
         y="277.39999"
         width="13.19"
         height="87.910004"
         rx="5"
         ry="5"
         transform="rotate(-180,1165.66,321.35)"
         id="rect29"
         style="fill:#ffffff" />
      <path
         class="cls-1"
         d="m 1139.29,322.45 v 0 c 7.25,0 19.78,-5.93 19.78,-13.19 v -23.07 c 0,-7.25 -12.53,-13.19 -19.78,-13.19 v 0 c -7.25,0 -9.89,5.93 -9.89,13.19 v 23.08 c 0,7.25 2.6,13.18 9.89,13.18 z"
         id="path31"
         inkscape:connector-curvature="0"
         style="fill:#ffffff" />
    </g>
  </g>
  <g
     id="r_earbud-2"
     data-name="r earbud"
     transform="translate(-29,-16.499992)">
    <path
       class="cls-3"
       d="m 452.66,355.42 c 0,77.28 40.95,228.53 39.56,306.58"
       id="path36"
       inkscape:connector-curvature="0"
       style="fill:none;stroke:#ffffff;stroke-width:6px;stroke-miterlimit:10" />
    <g
       id="g42">
      <rect
         class="cls-1"
         x="444.97"
         y="277.39999"
         width="13.19"
         height="87.910004"
         rx="5"
         ry="5"
         id="rect38"
         style="fill:#ffffff" />
      <path
         class="cls-1"
         d="m 477.93,322.45 v 0 c -7.25,0 -19.78,-5.93 -19.78,-13.19 v -23.07 c 0,-7.25 12.53,-13.19 19.78,-13.19 v 0 c 7.25,0 9.89,5.93 9.89,13.19 v 23.08 c 0,7.25 -2.63,13.18 -9.89,13.18 z"
         id="path40"
         inkscape:connector-curvature="0"
         style="fill:#ffffff" />
    </g>
  </g>
</svg>
